<svg id="SVGRoot" width="263.76px" height="105.84px" version="1.1" viewBox="0 0 275 125"
    xmlns="http://www.w3.org/2000/svg">
    <g stroke-width="1.181">
        <path class="s1" d="m-18.254 104.06 67.177-83.097h-67.177v-20.94h102.23v20.94l-66.445 83.097h66.445v20.94h-102.23z" fill="#11457e">
            <animate attributeName="opacity" values="1;0.9;0.8;0.7;0.6;0.5;0.4;0.3;0.2;0.3;0.4;0.5;0.6;0.7;0.8;0.9;1" begin="0s" dur="3s" repeatCount="indefinite"/>
        </path>
        <path class="s1" d="m94.452 0.01181h92.734v20.94h-63.527v29.053h63.527v20.94h-63.527v33.104h63.527v20.94h-92.734v-124.99z" fill="#11457e">
            <animate attributeName="opacity" values="1;0.9;0.8;0.7;0.6;0.5;0.4;0.3;0.2;0.3;0.4;0.5;0.6;0.7;0.8;0.9;1" begin="4s" dur="3s" repeatCount="indefinite"/>
        </path>
        <path class="s2" d="m243.39 0.01181v51.788h-11.645v-40.769h-13.464c-4.9721 0-8.9994 3.8147-8.9994 8.5152 0 4.7005 4.0273 8.5152 8.9994 8.5152h10.003v11.019h-10.003c-11.397 0-20.644-8.7514-20.644-19.534 0-10.783 9.2356-19.534 20.644-19.534h25.097z" fill="#589a3f" >
            <animate attributeName="opacity" values="1;0.9;0.8;0.7;0.6;0.5;0.4;0.3;0.2;0.3;0.4;0.5;0.6;0.7;0.8;0.9;1" begin="8s" dur="3s" repeatCount="indefinite"/>
        </path>
        <path class="s2" d="m272.6 0.01181c11.397 0 20.644 8.7396 20.644 19.534 0 10.783-9.2356 19.534-20.644 19.534h-10.003v-11.019h10.003c4.9721 0 8.9994-3.8147 8.9994-8.5152 0-4.7005-4.0273-8.5152-8.9994-8.5152h-13.464v40.769h-11.645v-51.788h25.097z" fill="#589a3f" >
            <animate attributeName="opacity" values="1;0.9;0.8;0.7;0.6;0.5;0.4;0.3;0.2;0.3;0.4;0.5;0.6;0.7;0.8;0.9;1" begin="8s" dur="3s" repeatCount="indefinite"/>
        </path>
    </g>
</svg>