<svg id="SVGRoot" width="600px" height="600px" version="1.1" viewBox="0 0 600 600" xmlns="http://www.w3.org/2000/svg">
 <g fill="#559535" fill-rule="evenodd" stroke-width="1.1036">
  <path d="m129.75 138.81v0.56055a117.5 117.5 0 0 0-114.33 117.27 117.5 117.5 0 0 0 117.5 117.5 117.5 117.5 0 0 0 0.18359-0.01367v0.47461h66.387v-21.393a117.5 117.5 0 0 0 0.33593-0.26757v-45.488h-62.75a50.5 50.5 0 0 1-0.71093 0.08008 50.5 50.5 0 0 1-0.71094-0.08008h-1.8789v-0.21093a50.5 50.5 0 0 1-47.91-50.209 50.5 50.5 0 0 1 47.91-50.209v-0.29102h2.5898 63.461v-0.33593h18.775v244.42h71.078v-244.08-8.0469-59.68h-159.93z"/>
  <path d="m472.07 138.81v0.56055a117.5 117.5 0 0 1 114.33 117.27 117.5 117.5 0 0 1-117.5 117.5 117.5 117.5 0 0 1-0.18359-0.0137v0.47461h-66.387v-21.393a117.5 117.5 0 0 1-0.33593-0.26757v-45.488h62.75a50.5 50.5 0 0 0 0.71093 0.0801 50.5 50.5 0 0 0 0.71094-0.0801h1.8789v-0.21093a50.5 50.5 0 0 0 47.91-50.209 50.5 50.5 0 0 0-47.91-50.209v-0.29102h-66.051v-0.33593h-18.775v244.42h-71.078v-311.81z"/>
 </g>
</svg>
